<svg width="68" height="68" viewBox="0 0 68 68" fill="none" xmlns="http://www.w3.org/2000/svg">
<path d="M34 5.66669C28.3962 5.66669 22.9182 7.32841 18.2588 10.4417C13.5994 13.555 9.96787 17.9801 7.82339 23.1573C5.6789 28.3346 5.11781 34.0314 6.21106 39.5276C7.3043 45.0237 10.0028 50.0722 13.9653 54.0347C17.9278 57.9972 22.9763 60.6957 28.4724 61.7889C33.9685 62.8822 39.6654 62.3211 44.8427 60.1766C50.0199 58.0321 54.445 54.4006 57.5583 49.7412C60.6716 45.0818 62.3333 39.6038 62.3333 34C62.3333 30.2792 61.6004 26.5949 60.1766 23.1573C58.7527 19.7198 56.6657 16.5963 54.0347 13.9653C51.4037 11.3343 48.2802 9.24732 44.8427 7.82343C41.4051 6.39955 37.7208 5.66669 34 5.66669ZM41.6783 37.655C41.9439 37.9184 42.1547 38.2318 42.2985 38.5771C42.4423 38.9223 42.5164 39.2927 42.5164 39.6667C42.5164 40.0407 42.4423 40.4111 42.2985 40.7563C42.1547 41.1016 41.9439 41.415 41.6783 41.6784C41.4149 41.9439 41.1015 42.1547 40.7563 42.2985C40.411 42.4424 40.0407 42.5164 39.6666 42.5164C39.2926 42.5164 38.9223 42.4424 38.577 42.2985C38.2317 42.1547 37.9184 41.9439 37.655 41.6784L34 37.995L30.345 41.6784C30.0816 41.9439 29.7682 42.1547 29.4229 42.2985C29.0777 42.4424 28.7073 42.5164 28.3333 42.5164C27.9593 42.5164 27.5889 42.4424 27.2437 42.2985C26.8984 42.1547 26.585 41.9439 26.3216 41.6784C26.0561 41.415 25.8453 41.1016 25.7014 40.7563C25.5576 40.4111 25.4835 40.0407 25.4835 39.6667C25.4835 39.2927 25.5576 38.9223 25.7014 38.5771C25.8453 38.2318 26.0561 37.9184 26.3216 37.655L30.005 34L26.3216 30.345C25.7881 29.8115 25.4884 29.0879 25.4884 28.3334C25.4884 27.5788 25.7881 26.8552 26.3216 26.3217C26.8552 25.7882 27.5788 25.4884 28.3333 25.4884C29.0878 25.4884 29.8114 25.7882 30.345 26.3217L34 30.005L37.655 26.3217C38.1885 25.7882 38.9121 25.4884 39.6666 25.4884C40.4212 25.4884 41.1448 25.7882 41.6783 26.3217C42.2118 26.8552 42.5116 27.5788 42.5116 28.3334C42.5116 29.0879 42.2118 29.8115 41.6783 30.345L37.995 34L41.6783 37.655Z" fill="#B0EBD2"/>
</svg>
